<?xml version="1.0" encoding="UTF-8"?>
<svg id="spirograph" xmlns="http://www.w3.org/2000/svg" viewBox="0 0 866.36 813">
  <defs>
    <style>
      .cls-1 {
        fill: #fcee21;
      }

      .cls-1, .cls-2, .cls-3, .cls-4, .cls-5, .cls-6, .cls-7, .cls-8, .cls-9, .cls-10, .cls-11, .cls-12, .cls-13, .cls-14, .cls-15, .cls-16, .cls-17, .cls-18, .cls-19, .cls-20, .cls-21, .cls-22, .cls-23 {
        mix-blend-mode: multiply;
        opacity: .25;
      }

      .cls-2 {
        fill: #fbb03b;
      }

      .cls-3 {
        fill: #ed1c24;
      }

      .cls-4 {
        fill: #ff0;
      }

      .cls-5 {
        fill: #ed1e79;
      }

      .cls-6 {
        fill: #f15a24;
      }

      .cls-7 {
        fill: #f7931e;
      }

      .cls-8 {
        fill: #8cc63f;
      }

      .cls-9 {
        fill: #93278f;
      }

      .cls-10 {
        fill: #9e005d;
      }

      .cls-11 {
        fill: #662d91;
      }

      .cls-12 {
        fill: #c1272d;
      }

      .cls-13 {
        fill: #d4145a;
      }

      .cls-14 {
        fill: #00a99d;
      }

      .cls-15 {
        fill: #009245;
      }

      .cls-16 {
        fill: #006837;
      }

      .cls-17 {
        fill: #0071bc;
      }

      .cls-18 {
        fill: #2e3192;
      }

      .cls-19 {
        fill: #39b54a;
      }

      .cls-20 {
        fill: #29abe2;
      }

      .cls-21 {
        fill: #22b573;
      }

      .cls-22 {
        fill: #1b1464;
      }

      .cls-23 {
        fill: #d9e021;
      }

      .cls-24 {
        isolation: isolate;
      }
    </style>
  </defs>
  <g class="cls-24">
    <g id="Layer_1" data-name="Layer 1">
      <g>
        <path class="cls-1" d="M431.8,0c-69.9,40.58-116.91,116.22-116.91,202.85s47.63,163.27,118.29,203.65c69.9-40.58,116.91-116.22,116.91-202.85S502.47,40.38,431.8,0Z"/>
        <path class="cls-23" d="M356.6,6.4c-61.33,51.35-93.63,133.51-77.6,218.82,16.14,85.87,77.12,153.03,154.18,181.28,61.33-51.35,93.63-133.51,77.6-218.82C494.65,101.81,433.67,34.65,356.6,6.4Z"/>
        <path class="cls-2" d="M283.73,24.96c-50.9,60.57-67.5,146.74-35.93,228.14,31.78,81.94,104.26,138.13,185.38,153.4,50.9-60.57,67.5-146.74,35.93-228.14-31.78-81.94-104.26-138.13-185.38-153.4Z"/>
        <path class="cls-7" d="M215.4,55.11c-38.92,67.94-39.32,155.51,6.83,230.53,46.46,75.51,128.24,119.05,210.95,120.86,38.92-67.94,39.32-155.51-6.83-230.53-46.46-75.51-128.24-119.05-210.95-120.86Z"/>
        <path class="cls-6" d="M153.68,95.93c-25.75,73.25-9.95,159.56,49.39,225.92,59.73,66.8,148.32,96.34,230.11,84.65,25.75-73.25,9.95-159.56-49.39-225.92-59.73-66.8-148.32-96.34-230.11-84.65Z"/>
        <path class="cls-3" d="M100.46,146.2c-11.81,76.34,19.73,158.75,90.44,214.44,71.18,56.05,163.89,70.71,242.28,45.87,11.81-76.34-19.73-158.75-90.44-214.44-71.18-56.05-163.89-70.71-242.28-45.87Z"/>
        <path class="cls-12" d="M57.35,204.37c2.5,77.1,48.8,153.13,128.75,196.44,80.47,43.6,174.49,42.93,247.09,5.69-2.5-77.1-48.8-153.13-128.75-196.44-80.47-43.6-174.49-42.93-247.09-5.69Z"/>
        <path class="cls-12" d="M25.65,268.68c16.73,75.52,76.4,142.85,163.14,172.48,87.32,29.82,179.78,13.84,244.39-34.66-16.73-75.52-76.4-142.85-163.14-172.48-87.32-29.82-179.78-13.84-244.39,34.66Z"/>
        <path class="cls-5" d="M6.34,337.19c30.45,71.65,101.67,128.23,192.58,143.27,91.51,15.14,179.61-15.66,234.26-73.96-30.45-71.65-101.67-128.23-192.58-143.27-91.51-15.14-179.61,15.66-234.26,73.96Z"/>
        <path class="cls-13" d="M0,407.79c43.24,65.6,123.85,109.71,216.17,109.71,92.92,0,173.98-44.69,217.02-111.01-43.24-65.6-123.85-109.71-216.17-109.71-92.92,0-173.98,44.69-217.02,111.01Z"/>
        <path class="cls-10" d="M6.82,478.36c54.73,57.56,142.27,87.86,233.18,72.82,91.51-15.14,163.07-72.37,193.18-144.68-54.73-57.56-142.27-87.86-233.18-72.82-91.51,15.14-163.07,72.37-193.18,144.68Z"/>
        <path class="cls-9" d="M26.6,546.75c64.54,47.76,156.37,63.35,243.12,33.72,87.32-29.82,147.2-97.84,163.47-173.96-64.54-47.76-156.37-63.35-243.12-33.72-87.32,29.82-147.2,97.84-163.47,173.96Z"/>
        <path class="cls-11" d="M58.72,610.87c72.4,36.52,165.72,36.9,245.66-6.41,80.47-43.6,126.86-120.34,128.8-197.96-72.4-36.52-165.72-36.9-245.66,6.41-80.47,43.6-126.86,120.34-128.8,197.96Z"/>
        <path class="cls-22" d="M102.23,668.78c78.06,24.17,170.03,9.34,240.74-46.35,71.18-56.05,102.66-139.18,90.21-215.94-78.06-24.17-170.03-9.34-240.74,46.35-71.18,56.05-102.66,139.18-90.21,215.94Z"/>
        <path class="cls-18" d="M155.79,718.73c81.35,11.08,169.17-18.51,228.51-84.87,59.73-66.8,75.35-153.8,48.88-227.36-81.35-11.08-169.17,18.51-228.51,84.87-59.73,66.8-75.35,153.8-48.88,227.36Z"/>
        <path class="cls-18" d="M217.78,759.19c82.16-2.34,163.18-45.8,209.33-120.82,46.46-75.51,45.74-163.74,6.06-231.87-82.16,2.34-163.18,45.8-209.33,120.82-46.46,75.51-45.74,163.74-6.06,231.87Z"/>
        <path class="cls-17" d="M286.32,788.93c80.48-15.7,152.22-71.69,183.8-153.09,31.78-81.94,14.75-168.71-36.93-229.33-80.48,15.7-152.22,71.69-183.8,153.09-31.78,81.94-14.75,168.71,36.93,229.33Z"/>
        <path class="cls-20" d="M359.32,807.05c76.35-28.57,136.65-95.41,152.68-180.72,16.14-85.87-16.69-168.55-78.81-219.83-76.35,28.57-136.65,95.41-152.68,180.72-16.14,85.87,16.69,168.55,78.81,219.83Z"/>
        <path class="cls-14" d="M434.56,813c69.9-40.58,116.91-116.22,116.91-202.85,0-87.2-47.63-163.27-118.29-203.65-69.9,40.58-116.91,116.22-116.91,202.85,0,87.2,47.63,163.27,118.29,203.65Z"/>
        <path class="cls-21" d="M509.76,806.6c61.33-51.35,93.63-133.51,77.6-218.82-16.14-85.87-77.12-153.03-154.18-181.28-61.33,51.35-93.63,133.51-77.6,218.82,16.14,85.87,77.12,153.03,154.18,181.28Z"/>
        <path class="cls-16" d="M582.63,788.04c50.9-60.57,67.5-146.74,35.93-228.14-31.78-81.94-104.26-138.13-185.38-153.4-50.9,60.57-67.5,146.74-35.93,228.14,31.78,81.94,104.26,138.13,185.38,153.4Z"/>
        <path class="cls-15" d="M650.97,757.89c38.92-67.94,39.32-155.51-6.83-230.53-46.46-75.51-128.24-119.05-210.95-120.86-38.92,67.94-39.32,155.51,6.83,230.53,46.46,75.51,128.24,119.05,210.95,120.86Z"/>
        <path class="cls-19" d="M712.68,717.07c25.75-73.25,9.95-159.56-49.39-225.92-59.73-66.8-148.32-96.34-230.11-84.65-25.75,73.25-9.95,159.56,49.39,225.92,59.73,66.8,148.32,96.34,230.11,84.65Z"/>
        <path class="cls-8" d="M765.9,666.8c11.81-76.34-19.73-158.75-90.44-214.44-71.18-56.05-163.89-70.71-242.28-45.87-11.81,76.34,19.73,158.75,90.44,214.44,71.18,56.05,163.89,70.71,242.28,45.87Z"/>
        <path class="cls-23" d="M809.02,608.63c-2.5-77.1-48.8-153.13-128.75-196.44-80.47-43.6-174.49-42.93-247.09-5.69,2.5,77.1,48.8,153.13,128.75,196.44,80.47,43.6,174.49,42.93,247.09,5.69Z"/>
        <path class="cls-1" d="M840.71,544.32c-16.73-75.52-76.4-142.85-163.14-172.48-87.32-29.82-179.78-13.84-244.39,34.66,16.73,75.52,76.4,142.85,163.14,172.48,87.32,29.82,179.78,13.84,244.39-34.66Z"/>
        <path class="cls-2" d="M860.02,475.81c-30.45-71.65-101.67-128.23-192.58-143.27-91.51-15.14-179.61,15.66-234.26,73.96,30.45,71.65,101.67,128.23,192.58,143.27,91.51,15.14,179.61-15.66,234.26-73.96Z"/>
        <path class="cls-7" d="M866.36,405.21c-43.24-65.6-123.85-109.71-216.17-109.71-92.92,0-173.98,44.69-217.02,111.01,43.24,65.6,123.85,109.71,216.17,109.71,92.92,0,173.98-44.69,217.02-111.01Z"/>
        <path class="cls-6" d="M859.54,334.64c-54.73-57.56-142.27-87.86-233.18-72.82-91.51,15.14-163.07,72.37-193.18,144.68,54.73,57.56,142.27,87.86,233.18,72.82,91.51-15.14,163.07-72.37,193.18-144.68Z"/>
        <path class="cls-3" d="M839.77,266.25c-64.54-47.76-156.37-63.35-243.12-33.72-87.32,29.82-147.2,97.84-163.47,173.96,64.54,47.76,156.37,63.35,243.12,33.72,87.32-29.82,147.2-97.84,163.47-173.96Z"/>
        <path class="cls-12" d="M807.64,202.13c-72.4-36.52-165.72-36.9-245.66,6.41-80.47,43.6-126.86,120.34-128.8,197.96,72.4,36.52,165.72,36.9,245.66-6.41,80.47-43.6,126.86-120.34,128.8-197.96Z"/>
        <path class="cls-23" d="M764.13,144.22c-78.06-24.17-170.03-9.34-240.74,46.35-71.18,56.05-102.66,139.18-90.21,215.94,78.06,24.17,170.03,9.34,240.74-46.35,71.18-56.05,102.66-139.18,90.21-215.94Z"/>
        <path class="cls-1" d="M710.57,94.27c-81.35-11.08-169.17,18.51-228.51,84.87-59.73,66.8-75.35,153.8-48.88,227.36,81.35,11.08,169.17-18.51,228.51-84.87,59.73-66.8,75.35-153.8,48.88-227.36Z"/>
        <path class="cls-2" d="M648.58,53.81c-82.16,2.34-163.18,45.8-209.33,120.82-46.46,75.51-45.74,163.74-6.06,231.87,82.16-2.34,163.18-45.8,209.33-120.82,46.46-75.51,45.74-163.74,6.06-231.87Z"/>
        <path class="cls-7" d="M580.04,24.07c-80.48,15.7-152.22,71.69-183.8,153.09-31.78,81.94-14.75,168.71,36.93,229.33,80.48-15.7,152.22-71.69,183.8-153.09,31.78-81.94,14.75-168.71-36.93-229.33Z"/>
        <path class="cls-7" d="M507.05,5.95c-76.35,28.57-136.65,95.41-152.68,180.72-16.14,85.87,16.69,168.55,78.81,219.83,76.35-28.57,136.65-95.41,152.68-180.72,16.14-85.87-16.69-168.55-78.81-219.83Z"/>
        <path class="cls-4" d="M431.8,0c-69.9,40.58-116.91,116.22-116.91,202.85,0,87.2,47.63,163.27,118.29,203.65,69.9-40.58,116.91-116.22,116.91-202.85,0-87.2-47.63-163.27-118.29-203.65Z"/>
      </g>
    </g>
  </g>
</svg>