<?xml version="1.0" encoding="UTF-8"?>
<svg xmlns="http://www.w3.org/2000/svg" viewBox="0 0 396.85 435.16">
  <defs>
    <style>
      .cls-1 {
        fill: none;
        stroke: #231f20;
        stroke-miterlimit: 10;
        stroke-width: 8px;
      }
    </style>
  </defs>
  <g id="layer_1" data-name="layer 1">
    <path class="cls-1" d="M119.58,142.88c-2.33,14.13-.07,18.35,2.27,19.7,3.58,2.05,7.54-2.53,21.97-6.82,6.54-1.94,11.93-3.49,18.94-3.03,1.44,.09,3.28,.3,15.15,3.79,17.27,5.08,18.85,6.26,18.94,7.58,.2,3.16-8.36,6.06-10.61,6.82-7.9,2.67-14.84,1.97-18.94,1.52-1.37-.15-9.2-1.02-15.15-3.79-15.29-7.1-27.47-30.98-20.45-44.7,7.71-15.08,38.48-17.65,57.58-6.82,33.63,19.08,32.98,80.82,21.89,116.96-3.55,11.56-8.04,20.06-11.28,25.47-5.63,9.37-27.35,45.56-60.61,46.97-17.14,.73-31.04-8.05-44.7-16.67-9.31-5.87-16.93-12.66-16.93-12.66s-4.74-4.39-8.83-9.31c-6.67-8.02-16.57-21.41-22.73-58.33,0,0-9.04-32.48-7.7-55.89,.25-4.35,.89-8.5,.89-8.5s.86-5.6,2.48-11.21C62.65,61.7,122.61,53.49,122.61,53.49c40.2-5.51,70.14,21.17,73.48,24.24,1.66,1.52,28.91,27.31,31.06,65.15,1.07,18.78-4.21,37.61,.76,39.39,4.36,1.56,9.88-12.43,18.18-11.36,7.19,.92,12.59,12.64,12.88,21.97,.23,7.56-2.9,13.36-4.55,15.91-.85,1.32-3.32,4.9-14.39,12.12-11.4,7.43-12.83,6.27-16.67,9.85-7.3,6.81-8.17,16.67-9.09,27.27-.3,3.45-1.23,16.25,3.79,37.88,5.38,23.23,10.57,26.23,7.58,34.09-3.21,8.44-12.49,12.7-31.06,21.21-1.93,.88-4.31,1.93-24.24,9.09-27.94,10.03-30.63,10.62-34.09,9.09-5.09-2.24-4.17-5.66-16.67-29.55-7.42-14.17-11.28-19.74-12.88-21.97-7.22-10.1-14.05-16.37-15.91-18.18-25.52-24.77-65.42-125.32-43.94-140.91,2.83-2.06,9.29-4.49,15.91-5.3,7.77-.96,14.08,.52,18.18,1.52,3.59,.87,7.58,1.87,12.12,4.55,1.12,.66,11.71,6.89,10.61,10.61-1.27,4.27-17.36,3.31-27.27,1.52-8.27-1.49-12.92-2.34-17.42-6.06-9.52-7.88-13.87-24.93-6.82-32.58,6.83-7.41,21.73-3.11,27.27-1.52,2.13,.61,11.08,3.36,17.42,9.09,24.05,21.75-.35,76.75,18.94,87.88,7.14,4.12,14.96-.84,19.7,5.3,4.38,5.69,2.78,16.56-3.03,21.97-9.39,8.73-28.12,1.66-28.03,.76,.1-1.07,26.89,7.44,50.76-6.06,8.79-4.97,12.68-10.38,14.39-9.09,2.94,2.21-3.34,22.1-18.94,30.3-7.07,3.72-13.74,3.82-15.91,3.79-10.12-.16-17.2-4.95-19.7-6.82"/>
  </g>
  <g id="layer2">
    <path class="cls-1" d="M120.34,5.76c7.5-1.19,24.6-4.24,44.7,2.27,21.52,6.97,34.5,19.05,52.27,35.61,15.6,14.53,28.68,26.71,38.64,46.21,12.35,24.2,13.15,46.44,13.64,56.82,5.46,116.12,37.66,140.27,17.42,188.64-21.6,51.61-72.8,73.28-86.81,79.29-12.12,5.2-75.67,32.47-110.92,3.29-8.87-7.35-13.2-18.91-22.73-41.67-13.7-32.72-13.16-46.55-25.76-94.7-10-38.19-12.23-36.72-22.73-78.03-8.59-33.77-12.89-51.07-13.64-71.21-.66-18.04-3.16-71.87,18.94-81.06,23.08-9.6,61.47,19.86,62.32,18.3,.66-1.21-27.57-11.4-28.23-25.87-.75-16.55,34.78-33.42,62.88-37.88Z"/>
  </g>
</svg>