<?xml version="1.0" encoding="UTF-8"?>
<svg xmlns="http://www.w3.org/2000/svg" viewBox="0 0 456.29 419.02">
  <defs>
    <style>
      .cls-1 {
        stroke: #231f20;
      }

      .cls-1, .cls-2 {
        fill: none;
        stroke-miterlimit: 10;
        stroke-width: 4px;
      }

      .cls-2 {
        stroke: #bcbec0;
      }
    </style>
  </defs>
  <g id="Layer_1" data-name="Layer 1">
    <polyline class="cls-2" points="115.21 2 341.08 2 454.02 209.51 341.08 417.02 115.21 417.02 2.28 209.51 109.27 12.92 335.24 12.92 442.34 209.51 337.71 406.1 121.05 406.1 13.96 209.51 114.94 24.13 329.16 24.13 430.17 209.51 329.16 394.89 127.13 394.89 26.12 209.51 120.68 35.98 322.3 35.98 415.67 208.06 322.3 383.04 133.99 383.04 39.84 209.51 126.59 49.62 314.8 49.62 401.45 209.51 314.8 369.4 141.5 369.4 54.84 209.51 133.05 65.21 308.73 65.21 388.5 208.06 308.73 353.81 147.57 353.81 66.99 209.51 140.43 77.99 298.98 77.99 369.82 209.51 298.98 341.03 157.31 341.03 86.48 209.51 149.2 93.06 291.52 93.06 354.11 208.06 291.52 325.96 164.77 325.96 101.4 209.51 157.88 105.87 282.93 105.87 337.71 209.51 282.93 313.15 173.37 313.15 118.58 209.51 166.3 119.24 276.56 119.24 324.2 208.06 276.56 299.78 179.73 299.78 131.31 209.51 172.14 133.38 269.8 133.38 311.45 209.51 269.8 285.63 186.49 285.63 144.84 209.51 178.7 147.62 263.28 147.62 298.42 209.51 263.28 271.4 193.01 271.4 157.88 209.51 186.29 159.46 256.8 160.9 285.44 209.51 256.8 258.12 199.5 258.12 170.85 209.51 193.45 171.15 249.07 171.15 270 209.51 249.07 247.87 207.22 247.87 186.29 209.51 201.22 182.15 243.35 182.15 258.55 209.51 243.35 236.86 212.95 236.86 197.75 209.51 206.8 193.22 237.22 193.22 246.3 209.51 237.22 225.8 219.07 225.8 210 209.51 214.02 202.28 232.66 202.28 237.18 209.51 232.66 216.74 223.63 216.74 219.11 209.51"/>
  </g>
  <g id="Layer_2" data-name="Layer 2">
    <polyline class="cls-1" points="115.21 2 341.08 2 454.02 209.51 341.08 417.02 115.21 417.02 2.28 209.51 109.27 12.92 335.24 12.92 442.34 209.51 337.71 406.1 121.05 406.1 13.96 209.51 114.94 24.13 329.16 24.13 430.17 209.51 329.16 394.89 127.13 394.89 26.12 209.51 120.68 35.98 322.3 35.98 415.67 208.06 322.3 383.04 133.99 383.04 39.84 209.51 126.59 49.62 314.8 49.62 401.45 209.51 314.8 369.4 141.5 369.4 54.84 209.51 133.05 65.21 308.73 65.21 388.5 208.06 308.73 353.81 147.57 353.81 66.99 209.51 140.43 77.99 298.98 77.99 369.82 209.51 298.98 341.03 157.31 341.03 86.48 209.51 149.2 93.06 291.52 93.06 354.11 208.06 291.52 325.96 164.77 325.96 101.4 209.51 157.88 105.87 282.93 105.87 337.71 209.51 282.93 313.15 173.37 313.15 118.58 209.51 166.3 119.24 276.56 119.24 324.2 208.06 276.56 299.78 179.73 299.78 131.31 209.51 172.14 133.38 269.8 133.38 311.45 209.51 269.8 285.63 186.49 285.63 144.84 209.51 178.7 147.62 263.28 147.62 298.42 209.51 263.28 271.4 193.01 271.4 157.88 209.51 186.29 159.46 256.8 160.9 285.44 209.51 256.8 258.12 199.5 258.12 170.85 209.51 193.45 171.15 249.07 171.15 270 209.51 249.07 247.87 207.22 247.87 186.29 209.51 201.22 182.15 243.35 182.15 258.55 209.51 243.35 236.86 212.95 236.86 197.75 209.51 206.8 193.22 237.22 193.22 246.3 209.51 237.22 225.8 219.07 225.8 210 209.51 214.02 202.28 232.66 202.28 237.18 209.51 232.66 216.74 223.63 216.74 219.11 209.51"/>
  </g>
</svg>